
<svg width="167px" height="167px" viewBox="0 0 167 167" version="1.1" xmlns="http://www.w3.org/2000/svg" xmlns:xlink="http://www.w3.org/1999/xlink">
    <!-- Generator: Sketch 51.2 (57519) - http://www.bohemiancoding.com/sketch -->
    <desc>Created with Sketch.</desc>
    <defs>
        <polygon id="path-1" points="0 0 167 0 167 167 0 167"></polygon>
    </defs>
    <g id="Page-1" stroke="none" stroke-width="1" fill="none" fill-rule="evenodd">
        <g id="Desktop-HD">
            <g id="Group-3">
                <mask id="mask-2" fill="white">
                    <use xlink:href="#path-1"></use>
                </mask>
                <g id="Clip-2"></g>
                <path d="M119.46696,129.747779 C117.859747,130.40568 115.158153,130.989774 112.017534,130.989774 C104.05782,130.989774 97.9216514,128.944809 97.9216514,117.915738 L97.9216514,103.016886 L91.4228096,103.016886 L91.4228096,92.5731823 L97.9216514,92.5731823 L97.9216514,83.0787906 L111.434712,83.0787906 L111.434712,92.5731823 L119.321891,92.5731823 L119.321891,103.016886 L111.434712,103.016886 L111.434712,116.382332 C111.434712,118.86505 112.455286,120.618605 115.742247,120.618605 C116.619024,120.618605 117.859747,120.472263 119.46696,120.17958 L119.46696,129.747779 Z M76.2160035,130.550749 L65.3332749,116.893892 L63.7998689,118.427298 L63.7998689,130.550749 L50.2893534,130.550749 L50.2893534,78.9888596 L63.7998689,78.9888596 L63.7998689,103.016886 L73.6594785,92.5731823 L88.7784797,92.5731823 L73.5856714,108.348812 L90.7509106,130.550749 L76.2160035,130.550749 Z M50.2893534,35.3714129 L63.7998689,35.3714129 L63.7998689,42.0904034 C64.9680571,39.5338784 68.1099486,35.0049225 74.6825975,35.0049225 C79.9407166,35.0049225 84.2495238,37.1236951 86.3670238,42.5281558 C88.048044,39.0223189 92.6495344,35.0049225 98.3454059,35.0049225 C105.502149,35.0049225 111.419442,39.606413 111.419442,51.6573297 L111.419442,73.3489797 L97.9076535,73.3489797 L97.9076535,51.8774784 C97.9076535,47.860082 95.5700047,46.1065273 93.1598214,46.1065273 C88.9973559,46.1065273 87.609019,49.977582 87.609019,50.7080177 L87.609019,73.3489797 L74.0985034,73.3489797 L74.0985034,51.8774784 C74.0985034,47.860082 71.6870476,46.1065273 69.3506713,46.1065273 C65.3332749,46.1065273 63.7998689,49.4672951 63.7998689,51.5847951 L63.7998689,73.3489797 L50.2893534,73.3489797 L50.2893534,35.3714129 Z M0,167 L167,167 L167,0 L0,0 L0,167 Z" id="Fill-1" fill="#222C35" mask="url(#mask-2)"></path>
            </g>
        </g>
    </g>
</svg>
