<?xml version="1.0" standalone="no"?>
<!DOCTYPE svg PUBLIC "-//W3C//DTD SVG 20010904//EN"
 "http://www.w3.org/TR/2001/REC-SVG-20010904/DTD/svg10.dtd">
<svg version="1.0" xmlns="http://www.w3.org/2000/svg"
 width="501.000000pt" height="501.000000pt" viewBox="0 0 501.000000 501.000000"
 preserveAspectRatio="xMidYMid meet">
<metadata>
Created by potrace 1.11, written by Peter Selinger 2001-2013
</metadata>
<g transform="translate(0.000000,501.000000) scale(0.100000,-0.100000)"
fill="#000000" stroke="none">
<path d="M0 2505 l0 -2505 2505 0 2505 0 0 2505 0 2505 -2505 0 -2505 0 0
-2505z m2355 1440 c94 -25 173 -86 210 -162 20 -40 32 -48 39 -25 9 26 92 109
140 140 53 33 146 62 201 62 200 0 336 -117 381 -330 13 -60 16 -148 17 -445
l0 -370 -201 -3 c-111 -1 -202 1 -203 5 0 5 -1 163 -2 353 -2 325 -3 347 -22
379 -32 54 -68 75 -125 74 -37 0 -60 -7 -89 -27 -71 -49 -71 -52 -71 -440 l0
-346 -203 0 -203 0 -1 348 c0 331 -1 350 -21 388 -26 51 -58 73 -114 77 -64 6
-124 -28 -156 -88 -14 -26 -17 -79 -18 -370 -1 -187 -3 -343 -3 -347 -1 -5
-91 -8 -201 -8 l-200 0 0 570 0 570 202 -2 203 -3 -1 -87 c0 -49 3 -88 8 -88
4 0 8 4 8 9 0 5 22 34 50 64 95 104 227 140 375 102z m-441 -1662 c0 -194 2
-353 6 -353 5 0 80 78 231 242 l57 61 221 0 c122 0 223 -2 225 -4 4 -4 -122
-136 -367 -386 l-81 -82 46 -58 c25 -32 63 -81 84 -109 21 -28 113 -147 204
-264 91 -118 168 -219 172 -225 5 -8 -54 -11 -209 -11 l-216 0 -160 201 c-88
110 -162 202 -164 204 -2 3 -14 -5 -26 -17 -21 -21 -22 -31 -23 -200 -1 -97
-2 -180 -3 -183 -1 -3 -91 -5 -201 -5 l-200 0 0 773 0 773 202 -2 202 -3 0
-352z m1427 224 c0 -7 1 -70 2 -142 l2 -130 90 -2 c50 0 102 -1 118 -2 l27 -1
0 -155 0 -155 -119 0 -118 0 1 -227 c2 -295 7 -303 162 -298 l80 4 -2 -132
c-1 -73 -2 -137 -3 -142 -3 -33 -272 -54 -386 -31 -105 21 -190 90 -225 182
-29 79 -32 109 -32 392 l-1 252 -97 0 -97 0 0 155 0 155 36 1 c20 0 64 1 97 2
l61 0 1 96 c0 53 1 117 1 143 l1 46 200 1 c150 0 200 -3 201 -12z"/>
</g>
</svg>
